<?xml version="1.0" encoding="utf-8"?>
<!-- Generator: Adobe Illustrator 17.1.0, SVG Export Plug-In . SVG Version: 6.00 Build 0)  -->
<!DOCTYPE svg PUBLIC "-//W3C//DTD SVG 1.1//EN" "http://www.w3.org/Graphics/SVG/1.1/DTD/svg11.dtd">
<svg version="1.1" id="Layer_1" xmlns="http://www.w3.org/2000/svg" xmlns:xlink="http://www.w3.org/1999/xlink" x="0px" y="0px"
	 viewBox="0 0 437 396" enable-background="new 0 0 437 396" xml:space="preserve">
<g transform="translate(0.000000,396.000000) scale(0.100000,-0.100000)">
	<path d="M2205,3923c-47-11-112-15-200-14c-155,3-238-15-379-82c-138-66-240-139-343-246c-121-125-133-138-244-246
		c-115-112-210-243-286-396c-44-89-67-123-97-145c-87-66-201-222-261-360c-25-58-42-81-82-113c-124-98-192-229-209-402
		c-3-41-15-91-25-111c-47-93-62-265-34-383c8-33,15-83,15-110c0-102,43-215,125-330c55-76,180-200,270-266c87-64,247-142,343-167
		l73-18l44-90c54-110,113-178,211-244c206-137,397-181,575-132c56,16,71,16,114,5c176-45,406-8,622,100c57,29,82,35,158,40
		c168,11,310,73,586,256c164,109,267,189,296,231c8,12,41,38,72,58c72,45,226,201,319,321c40,51,89,106,110,120c42,31,87,107,98,165
		c4,23,25,63,50,95c68,89,103,171,145,337c54,215,67,352,46,475c-9,52-20,146-26,209c-15,176-58,271-149,330c-39,25-52,40-62,73
		c-21,74-76,180-119,235c-47,58-132,130-203,169c-30,16-59,44-82,78c-33,51-104,116-138,128c-9,3-34,30-56,60
		c-63,85-174,146-292,162c-47,6-62,14-106,55c-60,57-125,91-226,121c-59,17-107,22-245,25c-95,2-192,8-215,14
		C2340,3943,2288,3941,2205,3923z M3230,3196 M3273,3182 M3814,3139"/>
</g>
</svg>
