<?xml version="1.0" standalone="no"?>
<!DOCTYPE svg PUBLIC "-//W3C//DTD SVG 20010904//EN"
 "http://www.w3.org/TR/2001/REC-SVG-20010904/DTD/svg10.dtd">
<svg version="1.0" xmlns="http://www.w3.org/2000/svg"
 width="437.000000pt" height="396.000000pt" viewBox="0 0 437.000000 396.000000"
 preserveAspectRatio="xMidYMid meet">
<metadata>
Created by potrace 1.11, written by Peter Selinger 2001-2013
</metadata>
<g transform="translate(0.000000,396.000000) scale(0.100000,-0.100000)"
fill="#000000" stroke="none">
<path d="M2205 3923 c-47 -11 -112 -15 -200 -14 -155 3 -238 -15 -379 -82
-138 -66 -240 -139 -343 -246 -121 -125 -133 -138 -244 -246 -115 -112 -210
-243 -286 -396 -44 -89 -67 -123 -97 -145 -87 -66 -201 -222 -261 -360 -25
-58 -42 -81 -82 -113 -124 -98 -192 -229 -209 -402 -3 -41 -15 -91 -25 -111
-47 -93 -62 -265 -34 -383 8 -33 15 -83 15 -110 0 -102 43 -215 125 -330 55
-76 180 -200 270 -266 87 -64 247 -142 343 -167 l73 -18 44 -90 c54 -110 113
-178 211 -244 206 -137 397 -181 575 -132 56 16 71 16 114 5 176 -45 406 -8
622 100 57 29 82 35 158 40 168 11 310 73 586 256 164 109 267 189 296 231 8
12 41 38 72 58 72 45 226 201 319 321 40 51 89 106 110 120 42 31 87 107 98
165 4 23 25 63 50 95 68 89 103 171 145 337 54 215 67 352 46 475 -9 52 -20
146 -26 209 -15 176 -58 271 -149 330 -39 25 -52 40 -62 73 -21 74 -76 180
-119 235 -47 58 -132 130 -203 169 -30 16 -59 44 -82 78 -33 51 -104 116 -138
128 -9 3 -34 30 -56 60 -63 85 -174 146 -292 162 -47 6 -62 14 -106 55 -60 57
-125 91 -226 121 -59 17 -107 22 -245 25 -95 2 -192 8 -215 14 -58 13 -110 11
-193 -7z m196 -59 c37 -11 73 -15 117 -11 34 4 62 4 62 2 0 -2 -20 -13 -43
-23 -24 -11 -52 -28 -63 -39 -14 -14 -44 -22 -117 -31 l-99 -12 -43 47 c-24
27 -44 51 -45 54 0 9 85 26 136 28 22 0 65 -6 95 -15z m-304 -29 c43 -22 103
-79 103 -99 0 -2 -13 -14 -29 -25 l-29 -21 -58 21 c-44 16 -83 21 -154 21
-120 0 -200 -24 -303 -91 -50 -33 -101 -56 -153 -71 -44 -12 -103 -34 -131
-50 -29 -15 -53 -25 -53 -20 0 14 137 137 201 180 65 45 204 113 252 124 28 7
28 6 13 -16 -9 -12 -16 -32 -16 -43 0 -19 2 -18 23 5 37 43 62 60 124 86 78
32 144 31 210 -1z m683 -5 c13 -9 13 -10 0 -10 -18 -1 -47 -25 -78 -64 -31
-41 -27 -52 8 -23 35 30 129 67 170 67 16 0 41 -5 57 -11 31 -12 97 -59 90
-65 -2 -2 -38 -13 -80 -23 -92 -24 -145 -50 -219 -107 -31 -25 -74 -52 -95
-61 -46 -19 -172 -26 -232 -12 -24 5 -46 8 -48 5 -2 -2 13 -14 34 -27 47 -28
52 -36 45 -63 -10 -38 -53 -85 -99 -107 -44 -21 -47 -21 -98 -5 -71 22 -80 21
-61 -6 9 -12 16 -39 16 -60 0 -31 -7 -45 -39 -77 -52 -52 -110 -66 -161 -39
-19 10 -43 18 -53 18 -16 0 -16 -2 4 -29 28 -39 19 -74 -30 -121 -56 -53 -126
-71 -306 -77 -136 -5 -238 3 -314 24 -17 4 -22 3 -17 -6 11 -17 82 -51 107
-51 19 0 16 -5 -21 -41 -23 -22 -40 -43 -37 -45 2 -2 29 7 59 20 80 35 166 50
264 43 130 -8 156 -48 91 -143 -74 -108 -198 -145 -288 -84 -24 16 -46 25 -47
19 -6 -15 47 -98 73 -115 l24 -15 -47 -59 c-26 -32 -65 -92 -88 -135 l-41 -76
-12 43 c-7 24 -21 54 -32 68 l-20 25 6 -61 c8 -75 -11 -216 -35 -263 -55 -108
-190 -173 -259 -125 -20 15 -23 23 -18 63 3 25 9 57 13 70 7 23 6 24 -14 9
-37 -25 -80 -87 -103 -146 -23 -61 -37 -162 -23 -162 5 0 20 29 32 65 13 36
27 67 32 70 17 10 92 -58 112 -101 25 -58 20 -80 -47 -208 -29 -56 -63 -132
-76 -171 -37 -116 -96 -158 -169 -120 -94 48 -131 208 -95 408 23 134 65 193
153 220 l37 12 -37 3 c-43 4 -107 -25 -136 -63 -11 -14 -29 -25 -41 -25 -34 0
-114 -30 -149 -57 -18 -14 -46 -43 -62 -64 -33 -46 -40 -37 -40 49 0 76 21
108 108 166 38 25 72 46 76 46 3 0 6 -10 6 -22 0 -13 4 -29 9 -37 6 -10 12 -3
21 25 17 56 152 334 162 334 4 0 8 -9 8 -19 0 -25 47 -81 68 -81 12 0 8 -9
-15 -32 -45 -49 -63 -80 -63 -108 l1 -25 22 25 c67 75 169 136 275 163 l53 13
-28 13 c-19 9 -51 10 -113 5 -131 -12 -150 -5 -150 55 1 79 77 219 188 347 75
86 72 96 -9 38 -52 -38 -97 -94 -192 -240 -37 -55 -73 -106 -81 -113 -25 -21
-48 28 -48 103 1 80 24 129 124 257 41 52 88 114 105 139 56 82 123 148 175
174 82 41 103 34 73 -23 -43 -84 -37 -218 16 -350 29 -72 29 -76 18 -151 -7
-42 -9 -90 -4 -106 7 -26 9 -23 21 36 18 88 59 204 96 269 16 29 28 55 26 56
-9 9 -70 -50 -87 -83 l-18 -36 -23 60 c-17 44 -23 81 -24 149 -1 79 2 97 27
146 30 63 77 101 144 119 52 13 78 7 177 -42 68 -34 89 -40 146 -40 72 -1 160
23 182 49 12 15 10 16 -12 9 -14 -4 -61 -10 -105 -13 -141 -9 -208 26 -235
122 -14 50 -30 45 -30 -10 l0 -30 -77 -1 c-43 -1 -89 -4 -103 -5 -52 -8 -81
122 -41 187 26 42 92 94 181 143 41 22 78 41 82 41 4 0 -4 -19 -17 -42 -46
-80 -26 -76 63 11 157 156 334 218 509 181 74 -16 78 -21 54 -61 -12 -19 -21
-51 -21 -71 0 -44 -17 -50 -46 -17 -31 36 -94 59 -159 59 -33 0 -67 -5 -75
-10 -11 -7 -4 -10 26 -10 55 0 127 -26 155 -56 l23 -25 -45 -42 c-24 -23 -54
-55 -67 -71 l-22 -28 -30 25 c-31 26 -35 28 -107 47 -39 10 -43 14 -43 41 0
16 7 43 15 59 9 17 12 30 7 30 -20 0 -54 -51 -59 -89 -5 -34 -10 -42 -32 -47
-49 -11 -126 -37 -176 -61 -27 -12 -63 -23 -78 -23 -16 0 -26 -4 -22 -10 11
-17 68 -11 146 15 147 51 273 51 316 0 34 -39 29 -57 -22 -84 -24 -13 -51 -34
-59 -46 l-15 -23 72 26 c60 22 90 27 174 27 76 0 99 3 90 11 -16 15 -74 34
-102 34 -13 0 -28 7 -35 15 -25 31 62 122 153 160 19 8 65 19 102 25 76 12
134 38 152 69 12 19 12 19 -23 5 -21 -9 -58 -14 -92 -12 -53 3 -57 5 -60 29
-4 38 50 91 123 119 88 34 235 40 299 12 57 -26 60 -12 6 27 -44 32 -43 34 28
70 69 35 172 51 202 31z m524 -219 c87 -43 135 -101 82 -101 -36 0 -74 -36
-87 -82 -6 -24 -28 -59 -52 -85 l-42 -44 -35 48 c-31 42 -108 99 -119 88 -2
-3 13 -23 34 -46 57 -63 79 -121 79 -209 1 -82 6 -78 -69 -63 -22 5 -56 6 -75
3 l-35 -5 62 -24 c136 -51 303 -257 348 -428 24 -94 24 -94 -42 -87 -63 7 -64
-5 -3 -25 240 -76 323 -369 176 -613 -19 -32 -30 -58 -25 -58 5 0 31 20 58 45
l48 45 40 -29 c53 -39 78 -75 96 -141 36 -129 29 -258 -20 -360 -24 -50 -139
-180 -160 -180 -4 0 -8 42 -8 93 0 78 -4 101 -26 147 -32 69 -79 123 -134 156
-25 14 -48 37 -55 54 -7 17 -28 43 -46 60 -22 19 -34 38 -34 55 0 23 2 25 21
14 26 -14 125 -7 141 9 9 9 1 12 -32 12 -51 0 -100 26 -126 65 -12 18 -20 59
-25 124 -4 53 -10 113 -14 133 -7 35 -6 35 32 41 54 9 102 43 141 101 51 77
41 94 -18 31 -57 -60 -92 -78 -141 -73 -37 3 -38 5 -104 153 -20 44 -49 97
-66 118 l-30 37 28 11 c60 22 143 129 143 183 0 30 -1 30 -34 -20 -63 -93
-124 -129 -176 -103 -22 11 -135 111 -266 236 -53 49 -44 122 22 183 59 54
140 91 216 98 54 4 59 7 43 19 -11 8 -45 13 -84 13 -74 0 -144 -27 -212 -81
l-38 -30 -7 26 c-4 15 -4 71 -2 124 4 83 10 108 35 162 51 109 150 189 274
224 37 10 86 14 156 12 91 -3 109 -7 167 -36z m194 -158 c-2 -5 20 -29 48 -56
87 -80 135 -223 136 -407 2 -112 -16 -181 -67 -266 -37 -62 -51 -101 -61 -177
l-7 -46 -38 31 c-32 26 -39 37 -39 68 0 93 -64 229 -170 364 -82 104 -87 129
-30 159 47 24 151 17 244 -16 l68 -25 -28 29 c-52 55 -195 91 -281 71 -41 -10
-43 -9 -43 14 0 13 15 41 35 62 19 21 48 68 64 104 16 36 35 70 43 74 7 5 38
12 68 15 30 3 56 7 58 8 1 0 1 -2 0 -6z m-838 -16 c0 -1 -9 -28 -20 -58 -31
-89 -44 -222 -32 -326 6 -48 9 -89 7 -91 -1 -2 -41 2 -89 8 -82 10 -175 6
-204 -10 -8 -4 20 -10 61 -13 80 -7 205 -43 274 -80 60 -31 134 -97 236 -207
193 -208 279 -400 295 -660 7 -105 0 -349 -12 -425 l-6 -40 25 50 c14 28 27
66 31 85 10 64 13 67 35 40 25 -33 39 -86 32 -121 -13 -68 -135 -141 -257
-154 -65 -7 -69 -7 -61 11 14 34 17 131 5 168 -6 20 -26 58 -44 85 l-33 49 -5
170 c-6 181 -6 182 41 182 26 0 114 28 134 42 14 11 -9 13 -135 13 -130 0
-161 3 -208 21 l-55 20 -7 69 c-5 47 -16 88 -37 129 l-31 59 27 36 c14 20 51
64 81 99 48 56 51 61 26 51 -49 -18 -89 -47 -137 -98 l-45 -48 -48 48 -47 48
7 63 c3 35 12 91 20 126 7 34 9 62 5 62 -13 0 -48 -82 -66 -155 -10 -38 -18
-72 -20 -74 -1 -2 -24 13 -51 33 -50 36 -113 101 -144 146 l-17 25 8 -31 c19
-71 77 -137 213 -245 157 -126 220 -248 174 -338 -21 -41 -93 -103 -174 -150
-70 -41 -196 -101 -212 -101 -4 0 -10 24 -12 54 -3 32 -13 67 -27 87 l-22 34
7 -56 c10 -94 -13 -151 -101 -250 -85 -96 -129 -176 -149 -270 -9 -42 -29 -92
-55 -134 -22 -38 -41 -72 -41 -76 0 -4 -17 -1 -37 7 -41 14 -94 16 -133 5 -23
-7 -22 -9 18 -20 24 -7 60 -27 80 -46 l37 -33 6 -154 c3 -84 12 -166 18 -183
11 -25 10 -31 -6 -43 -27 -19 -110 -42 -183 -48 -97 -9 -103 0 -98 134 3 97 3
102 -13 83 -9 -11 -26 -59 -38 -107 -31 -122 -57 -178 -102 -219 -45 -41 -73
-49 -140 -43 -94 9 -144 89 -137 220 5 111 54 207 157 306 43 42 98 87 120
100 l42 23 29 -31 c16 -17 43 -56 61 -86 17 -30 33 -53 35 -51 15 14 -36 149
-78 209 -9 13 -6 35 16 110 16 51 35 105 42 121 9 16 10 27 4 27 -15 0 -75
-98 -106 -174 -26 -62 -31 -68 -98 -108 -99 -58 -183 -146 -233 -243 l-42 -80
-11 30 c-24 61 -32 154 -20 222 32 188 157 352 374 495 90 59 177 108 194 108
4 0 18 -21 31 -47 29 -59 73 -116 112 -144 l30 -21 -35 55 c-42 65 -76 162
-76 214 1 80 72 173 165 214 54 24 155 47 222 51 29 2 53 6 53 10 0 15 -88 30
-147 25 l-62 -6 19 42 c11 23 20 60 20 82 l0 40 -31 -55 c-37 -68 -68 -101
-139 -150 -71 -48 -120 -103 -144 -160 -10 -25 -21 -51 -25 -58 -10 -20 -251
-145 -251 -129 0 31 66 219 103 294 96 195 236 310 402 329 30 4 52 10 50 15
-3 4 -30 13 -59 19 l-54 11 13 47 c29 107 70 173 131 208 45 26 64 25 64 -4 0
-9 22 -61 49 -117 26 -55 54 -118 61 -140 18 -58 66 -149 86 -166 15 -13 16
-12 9 11 -14 43 -24 94 -20 99 2 2 21 -11 42 -29 40 -35 156 -94 174 -88 6 2
-10 18 -35 36 -124 89 -237 230 -271 337 -39 126 2 281 106 390 80 84 219 146
219 96 0 -27 21 -81 31 -81 5 0 9 14 9 30 0 72 58 197 118 253 33 32 132 72
132 54z m-1520 -159 c0 -35 9 -71 25 -107 14 -30 23 -56 20 -60 -3 -3 -32 -6
-63 -6 -91 -1 -162 -53 -296 -219 -21 -26 -40 -45 -43 -43 -7 8 92 177 155
266 65 91 178 221 193 221 5 0 9 -24 9 -52z m2674 -139 c125 -117 204 -279
214 -440 l5 -86 -52 -5 c-80 -8 -121 -57 -124 -153 l-2 -53 -38 35 c-36 32
-75 53 -99 53 -6 0 21 -33 60 -74 79 -83 150 -213 178 -326 23 -89 15 -211
-20 -315 -27 -79 -83 -185 -98 -185 -4 0 -8 31 -8 68 0 119 -39 217 -120 307
l-50 55 1 133 c2 113 -1 141 -20 192 -40 111 -37 235 9 325 39 76 137 149 200
150 14 0 42 -9 63 -20 47 -25 50 -7 6 36 -28 27 -36 29 -105 29 -68 0 -73 2
-68 19 10 30 5 228 -6 266 -20 69 -9 67 74 -11z m-3081 -371 c-102 -130 -143
-212 -150 -302 -5 -62 -6 -64 -37 -69 -17 -3 -46 -9 -63 -13 l-33 -6 21 48
c44 100 116 210 186 281 39 40 75 73 79 73 3 0 2 -6 -3 -12z m3409 -76 c105
-117 85 -296 -46 -421 -50 -46 -53 -51 -30 -51 36 0 85 23 127 59 l36 32 7
-47 c9 -64 -9 -156 -46 -229 -30 -59 -153 -215 -169 -215 -5 0 -5 17 0 38 22
96 6 206 -57 390 -45 132 -55 232 -26 278 18 28 27 32 97 43 42 6 86 17 98 23
21 12 21 12 -8 18 -29 5 -30 7 -33 63 -2 31 1 57 6 57 5 0 25 -17 44 -38z
m-3517 -376 c15 -22 13 -30 -28 -131 l-45 -108 -64 -27 c-74 -32 -142 -72
-178 -106 -14 -13 -45 -30 -69 -39 l-44 -15 6 63 c16 172 104 282 281 354 97
39 120 41 141 9z m2142 -227 c56 -35 68 -68 68 -202 l0 -118 -76 -4 c-42 -2
-108 -11 -145 -20 -67 -15 -154 -57 -154 -74 0 -5 33 0 73 10 39 11 116 22
169 26 94 6 99 5 139 -21 51 -34 94 -120 86 -172 -8 -50 -67 -107 -160 -153
-127 -62 -123 -63 -131 13 -7 70 -21 120 -43 151 -12 18 -13 9 -7 -65 8 -106
-9 -230 -39 -284 -32 -59 -93 -90 -177 -90 -36 0 -78 3 -95 8 -29 7 -29 7 -11
-13 23 -25 73 -42 146 -50 l55 -6 19 -55 c27 -76 28 -234 2 -310 -28 -83 -72
-155 -139 -227 -56 -60 -58 -64 -31 -57 16 3 49 17 74 29 46 23 179 59 188 50
10 -10 -51 -84 -91 -111 -61 -40 -122 -43 -227 -9 -54 17 -126 30 -200 36 -63
5 -131 14 -150 19 -42 11 -102 59 -141 113 -16 22 -29 36 -30 31 -6 -49 16
-110 54 -151 l20 -23 -79 0 c-185 0 -354 82 -354 171 0 39 33 123 64 164 41
53 97 69 214 62 100 -7 194 -27 247 -54 16 -9 57 -39 90 -68 136 -118 214
-146 116 -43 -237 253 -277 332 -269 531 5 116 26 194 67 246 l19 24 78 -16
c44 -9 142 -19 219 -21 77 -3 155 -9 173 -15 30 -9 32 -9 20 6 -22 27 -89 51
-178 63 -199 26 -280 53 -280 93 0 58 69 209 127 278 67 80 163 88 279 24 l65
-35 -18 31 c-21 36 -55 62 -115 87 l-43 19 85 41 c170 81 251 90 332 37 l39
-26 -15 29 c-8 16 -32 43 -52 59 l-37 30 23 30 c22 31 23 31 63 17 22 -8 55
-24 74 -35z m1412 -253 c-6 -33 -23 -92 -40 -132 -48 -115 -129 -231 -129
-184 0 5 -16 27 -35 49 l-35 38 22 54 c12 30 26 56 30 57 31 13 129 98 157
136 19 25 36 45 37 43 1 -1 -2 -29 -7 -61z m-3896 -44 c2 -32 12 -73 21 -90
15 -30 15 -36 -9 -116 -13 -47 -30 -124 -36 -171 l-12 -86 -28 33 c-57 67 -83
136 -87 229 -4 95 8 153 40 194 22 28 75 65 94 65 6 0 14 -25 17 -58z m297 34
c0 -3 -7 -33 -14 -68 -38 -165 -30 -287 27 -399 l33 -66 -32 -21 c-35 -23 -77
-88 -88 -137 -7 -28 -4 -27 49 27 63 64 88 74 208 84 l77 7 0 -99 c0 -164 -38
-213 -184 -235 -123 -19 -255 19 -304 89 -47 66 -59 180 -38 357 28 235 102
393 211 449 29 15 55 21 55 12z m2845 -271 c63 -63 82 -132 67 -237 -32 -224
-211 -398 -447 -433 -44 -7 -45 -7 -45 20 0 48 -22 104 -56 143 l-33 39 30 36
30 37 -25 0 c-83 0 -153 -169 -115 -279 15 -41 29 -39 29 5 0 49 21 125 33
121 6 -2 19 -19 29 -38 51 -92 -25 -239 -177 -342 -60 -41 -238 -127 -263
-127 -9 0 -5 14 12 43 14 23 37 78 51 122 24 71 27 91 23 185 -4 75 -10 117
-24 149 l-20 44 46 47 c28 27 53 64 62 90 14 42 21 48 124 107 60 34 127 65
150 68 75 12 175 -46 220 -128 26 -47 29 -61 28 -144 -1 -88 0 -91 16 -70 10
12 21 32 25 45 5 17 12 22 23 17 34 -14 92 -18 92 -6 0 6 -7 11 -15 11 -24 0
-95 75 -95 101 0 28 -43 123 -59 134 -8 4 3 19 30 39 57 46 156 162 176 208 9
21 21 38 26 38 4 0 28 -20 52 -45z m513 -37 c32 -53 36 -91 14 -140 -17 -40
-48 -76 -56 -67 -2 2 -6 22 -9 44 -2 22 -10 54 -17 70 -13 30 -13 30 -22 -30
-16 -119 -30 -165 -67 -222 -47 -72 -160 -198 -232 -259 l-53 -46 -19 43 c-10
24 -27 54 -38 65 l-21 22 40 58 c21 33 45 74 52 92 8 21 21 34 39 38 86 20
172 105 230 228 29 61 48 88 77 108 51 34 59 34 82 -4z m-3693 -308 c7 -68 19
-133 31 -166 7 -18 7 -18 -13 -1 -48 42 -102 174 -117 285 l-4 32 48 -42 c45
-41 48 -46 55 -108z m737 -257 c17 -27 27 -58 31 -106 8 -86 33 -143 82 -186
52 -45 93 -61 160 -61 30 0 55 -4 55 -9 0 -4 -10 -23 -23 -42 -30 -45 -91 -78
-164 -88 -56 -7 -57 -8 -30 -19 45 -19 108 -14 166 13 l55 26 42 -47 c41 -44
42 -48 30 -73 -15 -28 -49 -62 -81 -79 -19 -11 -19 -11 3 -12 33 0 93 27 123
56 l27 26 77 -26 c43 -14 108 -29 146 -32 79 -8 85 -18 46 -75 -28 -42 -71
-58 -162 -58 -93 -1 -170 19 -280 74 -112 55 -193 118 -250 196 -53 73 -80
141 -94 243 -18 125 -12 316 9 316 4 0 18 -17 32 -37z m2428 -33 c16 -30 12
-82 -10 -117 -39 -64 -301 -251 -500 -357 -106 -56 -210 -98 -265 -109 l-30
-6 40 83 c37 76 44 85 100 117 33 19 93 67 134 107 l74 74 66 1 c50 2 74 -3
95 -16 35 -23 44 -16 22 18 -21 32 -70 63 -114 71 -46 9 -40 38 8 42 116 8
270 63 314 111 21 23 48 15 66 -19z m-2570 -50 c0 -52 -24 -85 -82 -110 -64
-28 -151 -24 -217 9 -38 20 -136 110 -127 118 1 2 32 -4 67 -13 77 -20 242
-15 304 9 55 21 55 21 55 -13z m19 -197 c1 -19 -4 -23 -29 -23 -16 0 -55 10
-87 22 l-58 22 51 7 c27 3 63 13 80 22 28 15 29 14 36 -6 3 -12 6 -32 7 -44z
m1236 -383 c72 -12 165 -40 165 -50 0 -14 -116 -59 -184 -71 -75 -13 -191 -7
-243 11 -29 10 -31 14 -22 36 5 14 9 36 9 49 0 14 7 25 18 28 33 9 197 7 257
-3z"/>
</g>
</svg>
