<?xml version="1.0" standalone="no"?>
<!DOCTYPE svg PUBLIC "-//W3C//DTD SVG 20010904//EN"
 "http://www.w3.org/TR/2001/REC-SVG-20010904/DTD/svg10.dtd">
<svg version="1.0" xmlns="http://www.w3.org/2000/svg"
 width="152.000000pt" height="221.000000pt" viewBox="0 0 152.000000 221.000000"
 preserveAspectRatio="xMidYMid meet">
<metadata>
Created by potrace 1.11, written by Peter Selinger 2001-2013
</metadata>
<g transform="translate(0.000000,221.000000) scale(0.100000,-0.100000)"
fill="#000000" stroke="none">
<path d="M638 2170 c-229 -42 -429 -187 -527 -383 -57 -114 -75 -190 -75 -322
0 -184 34 -278 159 -435 93 -117 131 -192 146 -290 15 -91 38 -145 91 -205
l40 -45 286 0 285 0 42 43 c53 55 79 113 94 207 15 98 53 173 146 290 125 157
159 251 159 435 0 132 -18 208 -75 322 -115 230 -352 378 -619 388 -58 2 -126
0 -152 -5z m305 -124 c147 -47 299 -169 365 -293 63 -119 86 -274 62 -404 -16
-81 -59 -164 -139 -264 -89 -112 -138 -211 -157 -315 -7 -44 -20 -93 -29 -108
-33 -60 -37 -62 -125 -62 l-82 0 7 53 c20 153 149 422 312 650 19 27 32 54 30
60 -2 6 -19 11 -37 11 -46 1 -62 39 -37 91 9 19 14 41 11 50 -8 19 -33 19 -40
0 -5 -11 -11 -12 -24 -5 -71 38 -158 -41 -129 -117 7 -20 5 -25 -18 -34 -15
-5 -37 -8 -49 -5 -22 6 -22 6 6 35 38 37 47 74 26 106 -21 32 -62 42 -95 24
-38 -21 -53 -57 -47 -111 4 -35 1 -48 -10 -52 -39 -15 -41 110 -4 220 23 65
26 109 8 120 -21 13 -46 -35 -58 -110 l-12 -73 -28 10 c-57 22 -120 -39 -120
-115 0 -39 -27 -65 -56 -54 -19 7 -18 73 1 119 8 20 12 43 9 52 -11 28 -38 11
-55 -35 -10 -27 -33 -59 -60 -83 l-44 -38 21 -17 c48 -38 204 -314 262 -462
30 -75 55 -169 67 -248 l7 -42 -83 0 c-87 0 -91 2 -124 62 -9 15 -22 64 -29
108 -19 104 -68 203 -157 315 -80 100 -123 183 -139 264 -24 130 -1 285 62
404 70 132 229 254 388 299 78 22 266 19 343 -6z m-291 -573 c22 -20 23 -54 3
-92 -18 -36 -37 -43 -64 -25 -24 17 -28 62 -10 97 21 40 42 46 71 20z m216 -6
c4 -21 -44 -77 -65 -77 -19 0 -17 65 3 85 21 21 58 16 62 -8z m186 -18 c5 -14
6 -38 2 -53 -5 -21 -12 -26 -36 -26 -51 0 -71 54 -37 98 17 22 61 10 71 -19z
m-613 -125 c15 -18 60 -18 84 0 17 12 22 12 39 0 30 -21 80 -17 101 6 16 18
20 19 27 6 8 -15 21 -16 207 -17 19 0 38 4 44 10 5 5 31 7 58 4 30 -4 54 -1
62 6 11 8 22 8 45 -2 l30 -12 -80 -125 c-44 -69 -104 -174 -134 -235 -51 -106
-104 -263 -104 -310 0 -47 -9 -55 -66 -55 l-54 0 0 33 c0 132 -119 419 -266
646 -51 78 -54 84 -37 96 16 12 19 11 25 -11 4 -14 12 -32 19 -40z"/>
<path d="M496 444 c-19 -19 -20 -36 -4 -52 17 -17 519 -17 536 0 16 16 15 33
-4 52 -23 24 -505 24 -528 0z"/>
<path d="M492 328 c-16 -16 -15 -43 2 -57 9 -8 89 -11 271 -9 233 3 259 5 269
20 8 13 8 23 0 35 -10 16 -36 18 -270 21 -194 2 -263 -1 -272 -10z"/>
<path d="M526 204 c-9 -24 -8 -31 10 -48 23 -24 425 -24 448 0 18 17 19 24 10
48 -5 14 -35 16 -234 16 -199 0 -229 -2 -234 -16z"/>
<path d="M630 90 c-8 -14 -8 -26 0 -40 10 -18 21 -20 130 -20 109 0 120 2 130
20 8 14 8 26 0 40 -10 18 -21 20 -130 20 -109 0 -120 -2 -130 -20z"/>
</g>
</svg>
